<svg width="24" height="24" viewBox="0 0 24 24" fill="none" xmlns="http://www.w3.org/2000/svg">
<g clip-path="url(#clip0_2321_23180)">
<path d="M24 12C24 18.6274 18.6274 24 12 24C5.37262 24 0 18.6274 0 12C0 12.0028 12 0.00135937 12 0C18.6274 0 24 5.37262 24 12Z" fill="#0052B4"/>
<path d="M11.9678 12.0004H11.9999C11.9999 11.9895 11.9999 11.9791 11.9999 11.9683C11.9892 11.979 11.9785 11.9897 11.9678 12.0004Z" fill="#F0F0F0"/>
<path d="M12 6.26183C12 4.15035 12 2.76674 12 0.000976562H11.998C5.3715 0.00205469 0 5.37416 0 12.0009H6.26086V8.47537L9.78642 12.0009H11.9679C11.9787 11.9902 11.9894 11.9796 12 11.9688C12 11.1604 12 10.439 12 9.78744L8.47443 6.26183H12Z" fill="#F0F0F0"/>
<path d="M6.07124 1.56567C4.19441 2.63438 2.63413 4.19466 1.56543 6.07149V12.0005H4.69588V4.69617V4.69613H12.0002C12.0002 3.7088 12.0002 2.76821 12.0002 1.56567H6.07124Z" fill="#D80027"/>
<path d="M12.0003 10.5249L7.7369 6.2615H6.26123C6.26123 6.26145 6.26123 6.2615 6.26123 6.2615L12.0003 12.0005H12.0003C12.0003 12.0005 12.0003 10.9831 12.0003 10.5249Z" fill="#D80027"/>
<path d="M7.23778 14.0864L7.89637 15.4635L9.38357 15.1198L8.71757 16.4933L9.91354 17.4417L8.42446 17.7774L8.42864 19.3038L7.23778 18.3488L6.04696 19.3038L6.05114 17.7774L4.56201 17.4417L5.75803 16.4933L5.09193 15.1198L6.57923 15.4635L7.23778 14.0864Z" fill="#F0F0F0"/>
<path d="M17.9673 16.6953L18.2965 17.3839L19.0402 17.212L18.7071 17.8987L19.3052 18.373L18.5606 18.5408L18.5627 19.304L17.9673 18.8265L17.3718 19.304L17.3739 18.5408L16.6294 18.373L17.2274 17.8987L16.8944 17.212L17.638 17.3839L17.9673 16.6953Z" fill="#F0F0F0"/>
<path d="M14.9038 9.39136L15.2331 10.08L15.9767 9.90801L15.6437 10.5948L16.2417 11.069L15.4972 11.2368L15.4992 12L14.9038 11.5225L14.3084 12L14.3104 11.2368L13.5659 11.069L14.1639 10.5948L13.8309 9.90801L14.5745 10.08L14.9038 9.39136Z" fill="#F0F0F0"/>
<path d="M17.9673 5.21753L18.2965 5.90612L19.0402 5.73423L18.7072 6.421L19.3051 6.89519L18.5606 7.06305L18.5627 7.82627L17.9673 7.34875L17.3718 7.82627L17.3739 7.06305L16.6294 6.89519L17.2273 6.421L16.8944 5.73423L17.638 5.90612L17.9673 5.21753Z" fill="#F0F0F0"/>
<path d="M20.6426 8.34766L20.9718 9.03625L21.7155 8.86431L21.3825 9.55108L21.9804 10.0253L21.2359 10.1932L21.2379 10.9563L20.6426 10.4789L20.0472 10.9563L20.0492 10.1932L19.3047 10.0253L19.9027 9.55108L19.5697 8.86431L20.3132 9.03625L20.6426 8.34766Z" fill="#F0F0F0"/>
<path d="M18.7295 12.0002L18.9885 12.7974H19.8267L19.1486 13.2901L19.4077 14.0872L18.7295 13.5946L18.0514 14.0872L18.3104 13.2901L17.6323 12.7974H18.4705L18.7295 12.0002Z" fill="#F0F0F0"/>
</g>
<defs>
<clipPath id="clip0_2321_23180">
<rect width="24" height="24" fill="white"/>
</clipPath>
</defs>
</svg>
