<svg width="24" height="24" viewBox="0 0 24 24" fill="none" xmlns="http://www.w3.org/2000/svg">
<g clip-path="url(#clip0_2321_23225)">
<path d="M23.5866 15.13C23.8556 14.1318 24 13.0827 24 11.9995C24 10.9164 23.8556 9.86721 23.5866 8.86906L10.9565 0.045166C8.61178 0.247197 6.46008 1.12329 4.69566 2.47896L0.413391 8.86906C0.144375 9.86721 0 10.9164 0 11.9995C0 13.0763 0.142641 14.1197 0.408656 15.1126L4.69561 21.5201C6.46003 22.8757 8.61173 23.7519 10.9565 23.9539L23.5866 15.13Z" fill="#FFDA44"/>
<path d="M0.413086 15.1306C1.1074 17.7068 2.63763 19.9397 4.69535 21.5207V15.1306H0.413086Z" fill="#0052B4"/>
<path d="M10.9561 23.9545C11.3 23.9841 11.6479 24.0002 11.9995 24.0002C17.5439 24.0002 22.2091 20.2398 23.5861 15.1306H10.9561V23.9545Z" fill="#0052B4"/>
<path d="M23.5861 8.86955C22.2091 3.76036 17.5439 0 11.9995 0C11.6479 0 11.3 0.0160312 10.9561 0.0456562V8.86955H23.5861Z" fill="#0052B4"/>
<path d="M4.69535 2.47974C2.63763 4.06083 1.1074 6.29363 0.413086 8.86983H4.69535V2.47974Z" fill="#0052B4"/>
<path d="M23.8989 10.4342H9.39185H9.3918V0.284668C8.28283 0.530574 7.23147 0.929152 6.26135 1.45851V10.4342H0.102066C0.0352695 10.9466 0.000488281 11.4689 0.000488281 11.9994C0.000488281 12.5299 0.0352695 13.0523 0.102066 13.5646H6.2613H6.26135V22.5403C7.23147 23.0696 8.28283 23.4683 9.3918 23.7142V13.5648V13.5647H23.8989C23.9656 13.0523 24.0005 12.5299 24.0005 11.9994C24.0005 11.4689 23.9656 10.9466 23.8989 10.4342Z" fill="#D80027"/>
</g>
<defs>
<clipPath id="clip0_2321_23225">
<rect width="24" height="24" fill="white"/>
</clipPath>
</defs>
</svg>
