<svg width="24" height="24" viewBox="0 0 24 24" fill="none" xmlns="http://www.w3.org/2000/svg">
<g clip-path="url(#clip0_2321_23282)">
<path d="M17.217 1.19096C15.6394 0.428119 13.8695 0.000244141 11.9996 0.000244141C10.1298 0.000244141 8.35988 0.428119 6.78225 1.19096L5.73877 12.0002L6.78225 22.8095C8.35988 23.5724 10.1298 24.0002 11.9996 24.0002C13.8695 24.0002 15.6394 23.5724 17.217 22.8095L18.2605 12.0002L17.217 1.19096Z" fill="#FFDA44"/>
<path d="M6.78262 1.19116C2.76872 3.13207 0 7.24249 0 12C0 16.7576 2.76872 20.868 6.78262 22.8089V1.19116Z" fill="#0052B4"/>
<path d="M17.2173 1.19165V22.8094C21.2312 20.8685 23.9999 16.758 23.9999 12.0005C23.9999 7.24303 21.2312 3.13256 17.2173 1.19165Z" fill="#0052B4"/>
<path d="M15.6523 7.30325L16.3523 7.65322L15.6523 7.30325L14.9522 6.95328C14.9101 7.0377 13.996 8.89738 13.8467 11.738H12.7827V7.30325L12.0001 6.25977L11.2175 7.30325V11.738H10.1535C10.0041 8.89738 9.09015 7.0377 9.04792 6.95328L7.64795 7.65327C7.65761 7.67248 8.60884 9.60866 8.60884 12.5207V13.3033H11.2175V17.7381H12.7827V13.3033H15.3914V12.5206C15.3914 11.0151 15.6519 9.77366 15.8705 8.99731C16.1087 8.15075 16.3508 7.65636 16.3532 7.65144L15.6523 7.30325Z" fill="black"/>
</g>
<defs>
<clipPath id="clip0_2321_23282">
<rect width="24" height="24" fill="white"/>
</clipPath>
</defs>
</svg>
