<svg width="20" height="21" viewBox="0 0 20 21" fill="none" xmlns="http://www.w3.org/2000/svg">
<path d="M12 20H8M16 7C16 5.4087 15.3679 3.88258 14.2426 2.75736C13.1174 1.63214 11.5913 1 10 1C8.4087 1 6.88258 1.63214 5.75736 2.75736C4.63214 3.88258 4 5.4087 4 7C4 10.0902 3.22047 12.206 2.34967 13.6054C1.61513 14.7859 1.24786 15.3761 1.26133 15.5408C1.27624 15.7231 1.31486 15.7926 1.46178 15.9016C1.59446 16 2.19259 16 3.38886 16H16.6111C17.8074 16 18.4055 16 18.5382 15.9016C18.6851 15.7926 18.7238 15.7231 18.7387 15.5408C18.7521 15.3761 18.3849 14.7859 17.6503 13.6054C16.7795 12.206 16 10.0902 16 7Z" stroke="black" stroke-width="1.5" stroke-linecap="round" stroke-linejoin="round"/>
</svg>
