<svg width="24" height="24" viewBox="0 0 24 24" fill="none" xmlns="http://www.w3.org/2000/svg">
<g clip-path="url(#clip0_2321_23260)">
<path d="M22.667 6.49836C22.1125 5.42403 21.3857 4.41566 20.4852 3.5151C19.5845 2.61449 18.5761 1.88769 17.5018 1.33325L9.04798 9.04916L1.33203 17.503C1.88652 18.5773 2.61331 19.5858 3.51387 20.4863C4.41444 21.3869 5.42286 22.1137 6.49714 22.6682L14.951 14.9522L22.667 6.49836Z" fill="#FFDA44"/>
<path d="M3.51455 20.4855C4.01795 20.9889 4.55509 21.4379 5.11848 21.8332L21.8334 5.11823C21.4381 4.55484 20.9892 4.0177 20.4858 3.51431C19.9824 3.01092 19.4453 2.562 18.8819 2.16675L2.16699 18.8816C2.5622 19.4449 3.01112 19.9822 3.51455 20.4855Z" fill="#D80027"/>
<path d="M3.51441 3.51431C-0.271541 7.30026 -0.998338 12.9861 1.33257 17.5023L17.5024 1.33251C12.9862 -0.998347 7.30032 -0.271457 3.51441 3.51431Z" fill="#338AF3"/>
<path d="M20.4855 20.485C24.2714 16.6991 24.9981 11.0132 22.6674 6.49707L6.49756 22.6669C11.0137 24.9977 16.6996 24.271 20.4855 20.485Z" fill="#338AF3"/>
<path d="M6.39498 3.65112L7.04251 5.64411H9.13801L7.44273 6.87579L8.09026 8.86873L6.39498 7.637L4.69961 8.86873L5.34723 6.87579L3.65186 5.64411H5.74736L6.39498 3.65112Z" fill="#FFDA44"/>
</g>
<defs>
<clipPath id="clip0_2321_23260">
<rect width="24" height="24" fill="white"/>
</clipPath>
</defs>
</svg>
