<svg width="24" height="24" viewBox="0 0 24 24" fill="none" xmlns="http://www.w3.org/2000/svg">
<g clip-path="url(#clip0_2321_23139)">
<path d="M17.2175 1.19121C15.6399 0.428363 13.87 0.000488281 12.0001 0.000488281C10.1303 0.000488281 8.36037 0.428363 6.78274 1.19121L5.73926 12.0005L6.78274 22.8098C8.36037 23.5726 10.1303 24.0005 12.0001 24.0005C13.87 24.0005 15.6399 23.5726 17.2175 22.8098L18.261 12.0005L17.2175 1.19121Z" fill="#D80027"/>
<path d="M12 7.82544L13.0359 11.0138H16.3888L13.6764 12.9846L14.7124 16.1732L12 14.2025L9.28753 16.1732L10.3237 12.9846L7.61133 11.0138H10.964L12 7.82544Z" fill="#FFDA44"/>
<path d="M6.78311 1.19165C2.76921 3.13256 0.000488281 7.24298 0.000488281 12.0005C0.000488281 16.758 2.76921 20.8685 6.78311 22.8094V1.19165Z" fill="#496E2D"/>
<path d="M17.2178 1.19165V22.8094C21.2317 20.8685 24.0004 16.758 24.0004 12.0005C24.0004 7.24303 21.2317 3.13256 17.2178 1.19165Z" fill="#FFDA44"/>
</g>
<defs>
<clipPath id="clip0_2321_23139">
<rect width="24" height="24" fill="white"/>
</clipPath>
</defs>
</svg>
