<svg width="16" height="16" viewBox="0 0 16 16" fill="none" xmlns="http://www.w3.org/2000/svg">
<g clip-path="url(#clip0_7386_1012)">
<path d="M11.4783 0.794057C10.4266 0.285494 9.24664 0.000244141 8.00008 0.000244141C6.75351 0.000244141 5.57358 0.285494 4.52183 0.794057L3.82617 8.00024L4.52183 15.2064C5.57358 15.715 6.75351 16.0002 8.00008 16.0002C9.24664 16.0002 10.4266 15.715 11.4783 15.2064L12.174 8.00024L11.4783 0.794057Z" fill="#D80027"/>
<path d="M7.99997 5.21704L8.69059 7.34263H10.9258L9.11759 8.65651L9.80825 10.7822L7.99997 9.46845L6.19169 10.7822L6.88247 8.65651L5.07422 7.34263H7.30931L7.99997 5.21704Z" fill="#FFDA44"/>
<path d="M4.52175 0.794434C1.84581 2.08837 0 4.82865 0 8.00034C0 11.172 1.84581 13.9123 4.52175 15.2062V0.794434Z" fill="#496E2D"/>
<path d="M11.4785 0.794434V15.2062C14.1545 13.9123 16.0003 11.172 16.0003 8.00034C16.0003 4.82868 14.1545 2.08837 11.4785 0.794434Z" fill="#FFDA44"/>
</g>
<defs>
<clipPath id="clip0_7386_1012">
<rect width="16" height="16" fill="white"/>
</clipPath>
</defs>
</svg>
