<svg width="24" height="24" viewBox="0 0 24 24" fill="none" xmlns="http://www.w3.org/2000/svg">
<g clip-path="url(#clip0_2321_23241)">
<path d="M12 24C18.6274 24 24 18.6274 24 12C24 5.37258 18.6274 0 12 0C5.37258 0 0 5.37258 0 12C0 18.6274 5.37258 24 12 24Z" fill="#D80027"/>
<path d="M6.56719 7.30151L7.60313 10.489H10.9547L8.24531 12.4624L9.28125 15.6499L6.56719 13.6812L3.85313 15.6499L4.89375 12.4624L2.17969 10.489H5.53125L6.56719 7.30151Z" fill="#FFDA44"/>
<path d="M14.226 18.5845L13.4338 17.6095L12.2619 18.0642L12.9416 17.0095L12.1494 16.0298L13.3635 16.3533L14.0479 15.2986L14.1135 16.5548L15.3322 16.8783L14.1557 17.3283L14.226 18.5845Z" fill="#FFDA44"/>
<path d="M15.8015 15.7252L16.1765 14.5251L15.1499 13.7986L16.4062 13.7798L16.7765 12.5798L17.1843 13.7705L18.4405 13.7564L17.4327 14.5064L17.8358 15.697L16.8093 14.9705L15.8015 15.7252Z" fill="#FFDA44"/>
<path d="M17.9251 8.80649L17.372 9.93618L18.272 10.8127L17.0298 10.6346L16.4767 11.7596L16.261 10.5221L15.0142 10.344L16.1298 9.75806L15.9142 8.51587L16.8142 9.39243L17.9251 8.80649Z" fill="#FFDA44"/>
<path d="M14.2592 5.38501L14.1654 6.63657L15.3326 7.11001L14.1092 7.41001L14.0201 8.66626L13.3592 7.59751L12.1357 7.89751L12.9467 6.93657L12.2811 5.87251L13.4482 6.34595L14.2592 5.38501Z" fill="#FFDA44"/>
</g>
<defs>
<clipPath id="clip0_2321_23241">
<rect width="24" height="24" fill="white"/>
</clipPath>
</defs>
</svg>
