<svg width="24" height="24" viewBox="0 0 24 24" fill="none" xmlns="http://www.w3.org/2000/svg">
<g clip-path="url(#clip0_2321_23235)">
<path d="M20.4858 20.4857C15.7995 25.172 8.20153 25.172 3.51521 20.4857C-1.17111 15.7995 -1.17106 8.20146 3.51521 3.51514C3.88412 3.884 13.1073 10.8936 13.1073 10.8936L20.4858 20.4857Z" fill="#0052B4"/>
<path d="M3.51514 3.51422C8.20141 -1.17206 15.7994 -1.17206 20.4857 3.51422C25.1721 8.20049 25.172 15.7985 20.4857 20.4848" fill="#6DA544"/>
<path d="M12.0006 15.131C13.7295 15.131 15.131 13.7295 15.131 12.0006C15.131 10.2717 13.7295 8.87012 12.0006 8.87012C10.2717 8.87012 8.87012 10.2717 8.87012 12.0006C8.87012 13.7295 10.2717 15.131 12.0006 15.131Z" fill="#FFDA44"/>
<path d="M4.46828 17.2175L4.79757 17.9061L5.54115 17.7342L5.20815 18.4209L5.80618 18.8952L5.06162 19.0629L5.06368 19.8262L4.46828 19.3487L3.87287 19.8262L3.87493 19.0629L3.13037 18.8952L3.7284 18.4209L3.39536 17.7342L4.13898 17.9061L4.46828 17.2175Z" fill="#F0F0F0"/>
<path d="M2.31442 11.4771L2.64372 12.1656L3.38729 11.9937L3.05434 12.6805L3.65228 13.1547L2.90776 13.3225L2.90982 14.0857L2.31442 13.6083L1.71906 14.0857L1.72108 13.3225L0.976562 13.1547L1.57455 12.6805L1.24155 11.9937L1.98512 12.1656L2.31442 11.4771Z" fill="#F0F0F0"/>
<path d="M4.46823 6.78198L4.79752 7.47053L5.5411 7.29859L5.20815 7.9854L5.80613 8.45964L5.06157 8.6274L5.06363 9.39067L4.46823 8.9132L3.87282 9.39067L3.87489 8.6274L3.13037 8.45964L3.72831 7.9854L3.39531 7.29859L4.13893 7.47053L4.46823 6.78198Z" fill="#F0F0F0"/>
<path d="M7.14401 10.4348L7.47331 11.1234L8.21693 10.9514L7.88388 11.6383L8.48187 12.1125L7.73735 12.2803L7.73937 13.0435L7.14401 12.566L6.5486 13.0435L6.55067 12.2803L5.80615 12.1125L6.40409 11.6383L6.07114 10.9514L6.81471 11.1234L7.14401 10.4348Z" fill="#F0F0F0"/>
<path d="M5.23143 13.5647L5.49046 14.3619H6.32859L5.65049 14.8545L5.90953 15.6516L5.23143 15.159L4.55334 15.6516L4.81237 14.8545L4.13428 14.3619H4.9724L5.23143 13.5647Z" fill="#F0F0F0"/>
<path d="M12 14.0872H13.0434C13.0434 14.0872 13.4956 13.2873 13.0434 12.522L14.0869 11.4785L13.5652 10.4351H13.0435C13.0435 10.4351 12.7826 11.2177 11.7391 11.2177C10.6957 11.2177 10.4348 10.4351 10.4348 10.4351H9.91309L10.4348 11.4785L9.91309 12.522L10.4348 13.0437C10.4348 13.0437 10.9565 12.0003 12 12.522C12 12.522 12.4434 13.1742 12 14.0872Z" fill="#6DA544"/>
<path d="M19.7888 6.57246C19.8134 6.44425 19.8265 6.31202 19.8265 6.17664C19.8265 5.24852 19.2205 4.46238 18.3828 4.19116C18.6387 4.71147 18.783 5.29666 18.783 5.91578C18.783 6.12457 18.7662 6.32941 18.7347 6.52933C18.6086 6.32622 18.4466 6.14064 18.2488 5.98319C17.5034 5.39013 16.4849 5.37443 15.7318 5.87388C16.3132 6.00082 16.8754 6.25886 17.3726 6.65444C17.7618 6.96419 18.0763 7.38316 18.3172 7.78759L15.1309 8.78533C18.2613 9.30704 20.87 7.22013 20.87 7.22013C20.5809 6.64206 20.132 6.54456 19.7888 6.57246Z" fill="#FFDA44"/>
</g>
<defs>
<clipPath id="clip0_2321_23235">
<rect width="24" height="24" fill="white"/>
</clipPath>
</defs>
</svg>
