<svg width="24" height="24" viewBox="0 0 24 24" fill="none" xmlns="http://www.w3.org/2000/svg">
<g clip-path="url(#clip0_2321_23194)">
<path d="M12 24C18.6274 24 24 18.6274 24 12C24 5.37258 18.6274 0 12 0C5.37258 0 0 5.37258 0 12C0 18.6274 5.37258 24 12 24Z" fill="#F0F0F0"/>
<path d="M9.39165 10.435H23.8987C23.1317 4.54721 18.0972 0.000244141 12.0003 0.000244141C11.1043 0.000244141 10.2316 0.099291 9.3916 0.285479V10.435H9.39165Z" fill="#D80027"/>
<path d="M6.26134 10.4359V1.46021C2.96635 3.25805 0.607504 6.55575 0.102051 10.4359H6.26134V10.4359Z" fill="#D80027"/>
<path d="M6.2608 13.5657H0.101562C0.607016 17.4458 2.96586 20.7435 6.26085 22.5413L6.2608 13.5657Z" fill="#D80027"/>
<path d="M9.3916 13.5657V23.7152C10.2316 23.9014 11.1043 24.0005 12.0003 24.0005C18.0972 24.0005 23.1317 19.4535 23.8987 13.5657H9.3916V13.5657Z" fill="#D80027"/>
</g>
<defs>
<clipPath id="clip0_2321_23194">
<rect width="24" height="24" fill="white"/>
</clipPath>
</defs>
</svg>
