<svg width="24" height="24" viewBox="0 0 24 24" fill="none" xmlns="http://www.w3.org/2000/svg">
<g clip-path="url(#clip0_2321_23221)">
<path d="M-0.000488281 11.9994C-0.000488281 13.4672 0.263559 14.8733 0.745902 16.1733L11.9995 16.695L23.2531 16.1733C23.7355 14.8733 23.9995 13.4672 23.9995 11.9994C23.9995 10.5315 23.7355 9.12546 23.2531 7.82548L11.9995 7.30371L0.745902 7.82543C0.263559 9.12546 -0.000488281 10.5315 -0.000488281 11.9994Z" fill="black"/>
<path d="M11.9997 -0.000244141C6.84013 -0.000244141 2.44161 3.25626 0.746094 7.82587H23.2534C21.5578 3.25626 17.1593 -0.000244141 11.9997 -0.000244141Z" fill="#0052B4"/>
<path d="M23.2533 16.1743H0.746094C2.44161 20.7439 6.84012 24.0004 11.9997 24.0004C17.1593 24.0004 21.5578 20.7439 23.2533 16.1743Z" fill="#F0F0F0"/>
</g>
<defs>
<clipPath id="clip0_2321_23221">
<rect width="24" height="24" fill="white"/>
</clipPath>
</defs>
</svg>
