<svg width="180" height="180" viewBox="0 0 180 180" fill="none" xmlns="http://www.w3.org/2000/svg">
<path d="M59.9999 22.5005H58.4999C45.8987 22.5005 39.5981 22.5005 34.7851 24.9528C30.5514 27.11 27.1094 30.5521 24.9522 34.7857C22.4999 39.5987 22.4999 45.8993 22.4999 58.5005V60.0005M59.9999 157.5H58.4999C45.8987 157.5 39.5981 157.5 34.7851 155.048C30.5514 152.891 27.1094 149.449 24.9522 145.215C22.4999 140.402 22.4999 134.102 22.4999 121.5V120M157.5 60.0005V58.5005C157.5 45.8993 157.5 39.5987 155.048 34.7857C152.89 30.5521 149.448 27.11 145.215 24.9528C140.402 22.5005 134.101 22.5005 121.5 22.5005H120M157.5 120V121.5C157.5 134.102 157.5 140.402 155.048 145.215C152.89 149.449 149.448 152.891 145.215 155.048C140.402 157.5 134.101 157.5 121.5 157.5H120M56.2499 60.0005V71.2505M123.75 60.0005V71.2505M82.4999 94.5012C88.4999 94.5012 93.7499 89.2512 93.7499 83.2512V60.0005M114.001 114C100.501 127.5 78.7513 127.5 65.2513 114" stroke="#00171F" stroke-width="6" stroke-linecap="round" stroke-linejoin="round"/>
</svg>
