<svg width="24" height="24" viewBox="0 0 24 24" fill="none" xmlns="http://www.w3.org/2000/svg">
<g clip-path="url(#clip0_2321_23104)">
<path d="M12 24C18.6274 24 24 18.6274 24 12C24 5.37258 18.6274 0 12 0C5.37258 0 0 5.37258 0 12C0 18.6274 5.37258 24 12 24Z" fill="#D80027"/>
<path d="M13.2392 9.07764C12.9665 10.212 12.482 9.99564 12.2442 10.9849C10.8434 10.6481 9.9807 9.2395 10.3175 7.83864C10.6542 6.43787 12.0629 5.57519 13.4637 5.91198C12.9881 7.89044 13.4832 8.06312 13.2392 9.07764Z" fill="#F0F0F0"/>
<path d="M9.60444 9.91773C10.599 10.5276 10.2435 10.9217 11.1108 11.4535C10.3576 12.6817 8.75141 13.0668 7.52319 12.3137C6.29502 11.5605 5.90985 9.95424 6.66304 8.72607C8.39769 9.78976 8.7148 9.37225 9.60444 9.91773Z" fill="#F0F0F0"/>
<path d="M9.28044 13.635C10.1678 12.8776 10.4326 13.3375 11.2065 12.677C12.1419 13.7728 12.0117 15.4194 10.916 16.3548C9.82015 17.2902 8.17353 17.1599 7.23828 16.0642C8.78581 14.7432 8.4867 14.3124 9.28044 13.635Z" fill="#F0F0F0"/>
<path d="M12.7155 15.0917C12.2692 14.0137 12.7884 13.9038 12.3994 12.9638C13.7306 12.4129 15.2565 13.0454 15.8075 14.3767C16.3584 15.7079 15.7258 17.2337 14.3946 17.7847C13.6166 15.9045 13.1146 16.0559 12.7155 15.0917Z" fill="#F0F0F0"/>
<path d="M15.1623 12.2741C13.9991 12.3653 14.055 11.8375 13.0408 11.9171C12.9282 10.4809 14.0013 9.22507 15.4376 9.11234C16.8739 8.99988 18.1297 10.0729 18.2423 11.5093C16.2137 11.6683 16.2025 12.1925 15.1623 12.2741Z" fill="#F0F0F0"/>
</g>
<defs>
<clipPath id="clip0_2321_23104">
<rect width="24" height="24" fill="white"/>
</clipPath>
</defs>
</svg>
