<svg width="24" height="24" viewBox="0 0 24 24" fill="none" xmlns="http://www.w3.org/2000/svg">
<g clip-path="url(#clip0_2321_23299)">
<path d="M12 24C18.6274 24 24 18.6274 24 12C24 5.37258 18.6274 0 12 0C5.37258 0 0 5.37258 0 12C0 18.6274 5.37258 24 12 24Z" fill="#FFDA44"/>
<path d="M13.8249 23.8623C15.7766 23.5645 17.5732 22.796 19.0963 21.6771L12 12.0002L13.8249 23.8623Z" fill="#D80027"/>
<path d="M10.1752 0.137695C8.22359 0.435445 6.42706 1.20401 4.90381 2.32287L12.0002 11.9997L10.1752 0.137695Z" fill="#D80027"/>
<path d="M4.90381 21.6771C6.42696 22.7959 8.2235 23.5645 10.1751 23.8623L12.0002 12.0002L4.90381 21.6771Z" fill="#D80027"/>
<path d="M2.32336 4.90234C1.20445 6.42559 0.43598 8.22208 0.138184 10.1738L12.0002 11.9988L2.32336 4.90234Z" fill="#D80027"/>
<path d="M0.138184 13.8252C0.435934 15.7769 1.2045 17.5734 2.3234 19.0966L12.0002 12.0002L0.138184 13.8252Z" fill="#D80027"/>
<path d="M23.862 10.174C23.5642 8.22233 22.7957 6.42579 21.6768 4.90259L12 11.999L23.862 10.174Z" fill="#D80027"/>
<path d="M19.0963 2.32282C17.5731 1.20396 15.7766 0.435445 13.8249 0.137695L12 11.9997L19.0963 2.32282Z" fill="#D80027"/>
<path d="M21.6769 19.0966C22.7958 17.5734 23.5643 15.7768 23.8621 13.8252L12 12.0002L21.6769 19.0966Z" fill="#D80027"/>
<path d="M12.0001 16.1742C14.3052 16.1742 16.174 14.3055 16.174 12.0003C16.174 9.69513 14.3052 7.82642 12.0001 7.82642C9.69489 7.82642 7.82617 9.69513 7.82617 12.0003C7.82617 14.3055 9.69489 16.1742 12.0001 16.1742Z" fill="#D80027"/>
<path d="M12.0001 15.1298C13.729 15.1298 15.1305 13.7283 15.1305 11.9993C15.1305 10.2704 13.729 8.8689 12.0001 8.8689C10.2712 8.8689 8.86963 10.2704 8.86963 11.9993C8.86963 13.7283 10.2712 15.1298 12.0001 15.1298Z" fill="#FFDA44"/>
</g>
<defs>
<clipPath id="clip0_2321_23299">
<rect width="24" height="24" fill="white"/>
</clipPath>
</defs>
</svg>
