<svg width="24" height="24" viewBox="0 0 24 24" fill="none" xmlns="http://www.w3.org/2000/svg">
<g clip-path="url(#clip0_2321_23186)">
<path d="M12 24C18.6274 24 24 18.6274 24 12C24 5.37258 18.6274 0 12 0C5.37258 0 0 5.37258 0 12C0 18.6274 5.37258 24 12 24Z" fill="#338AF3"/>
<path d="M11.6211 19.556C11.2976 19.5404 11.0299 19.3301 10.9251 19.0447C10.7399 19.2862 10.4216 19.4078 10.108 19.327C9.79394 19.2461 9.57433 18.9863 9.52891 18.6847C9.29828 18.884 8.96228 18.9382 8.6717 18.7958C8.38056 18.6529 8.21781 18.3539 8.2345 18.0497C7.96895 18.1989 7.62878 18.1843 7.37261 17.986C7.11695 17.7877 7.0173 17.4627 7.0945 17.1679C6.80439 17.2608 6.47467 17.1784 6.26336 16.9326C6.05205 16.6874 6.01966 16.3488 6.15433 16.0759C5.8517 16.1082 5.54495 15.9611 5.38736 15.6784C5.22925 15.3956 5.26581 15.057 5.45308 14.8164C5.14994 14.7872 4.87862 14.5811 4.78159 14.2722C4.68405 13.9634 4.78839 13.6388 5.02056 13.4411C4.72942 13.3513 4.50611 13.0946 4.47325 12.7727C4.44039 12.4508 4.60736 12.155 4.87394 12.0079C4.60731 11.8618 4.43931 11.566 4.47114 11.2446C4.47114 11.2446 4.47114 11.2446 4.47166 11.2446C4.50348 10.9221 4.7268 10.6649 5.01737 10.5741C4.7852 10.3769 4.67983 10.0529 4.77634 9.74399C4.87286 9.43462 5.14361 9.22799 5.4468 9.19771C5.25948 8.95771 5.22194 8.61904 5.37897 8.33582C5.536 8.05302 5.8428 7.90537 6.14594 7.9372C6.01028 7.66434 6.04211 7.32571 6.25291 7.07948C6.46319 6.83376 6.79291 6.75079 7.08353 6.84262C7.00525 6.54834 7.10439 6.22279 7.36005 6.02404C7.61519 5.82519 7.95536 5.81005 8.22091 5.95823C8.2037 5.6541 8.36594 5.35509 8.65656 5.2116C8.94667 5.06863 9.28319 5.12188 9.51428 5.32115C9.55862 5.01965 9.77828 4.75879 10.0918 4.67732C10.4049 4.59595 10.7231 4.71646 10.9089 4.95749C11.0137 4.67212 11.2809 4.46132 11.6043 4.44515C11.9273 4.42851 12.2142 4.61001 12.3478 4.88296C12.5075 4.62416 12.8111 4.47079 13.131 4.5193C13.4513 4.5673 13.6971 4.80309 13.7732 5.09793C13.9819 4.8756 14.3106 4.78748 14.6143 4.89909C14.9185 5.01126 15.1115 5.29194 15.1261 5.59663C15.375 5.42137 15.7151 5.40098 15.9901 5.57212C16.2651 5.74274 16.3971 6.05629 16.3501 6.35732C16.6292 6.23577 16.9663 6.28429 17.2011 6.50652C17.4359 6.72932 17.5026 7.0627 17.3962 7.34807C17.6941 7.28493 18.0145 7.39973 18.2002 7.66527C18.3859 7.9303 18.3844 8.27048 18.2232 8.52876C18.5274 8.52665 18.818 8.70407 18.9468 9.00093C19.0752 9.2983 19.0047 9.63173 18.7945 9.85241C19.0935 9.9119 19.3423 10.1441 19.408 10.4613C19.4732 10.7785 19.3371 11.09 19.0872 11.2637C19.3668 11.3822 19.564 11.6592 19.5646 11.9827C19.5646 11.9863 19.5646 11.9895 19.5646 11.9931C19.5646 11.9953 19.5646 11.9978 19.5646 11.9999C19.5646 12.3234 19.3684 12.601 19.0887 12.7205C19.3392 12.8932 19.4764 13.2046 19.4112 13.5218C19.3465 13.839 19.0982 14.0718 18.7992 14.1323C19.01 14.3525 19.0815 14.6853 18.9536 14.9833C18.8258 15.2806 18.5352 15.4586 18.2305 15.457C18.3922 15.7153 18.3948 16.0554 18.2096 16.321C18.0244 16.5866 17.7046 16.7024 17.4067 16.6398C17.5136 16.9246 17.4474 17.2586 17.2131 17.4819C16.9783 17.7047 16.6418 17.7537 16.3627 17.6332C16.4102 17.9337 16.2787 18.2478 16.0042 18.4195C15.7298 18.5911 15.3896 18.5713 15.1402 18.3965C15.1261 18.7012 14.9341 18.9824 14.6305 19.0951C14.6305 19.0951 14.6305 19.0951 14.63 19.0951C14.3263 19.2073 13.9976 19.1197 13.7884 18.898C13.7133 19.1933 13.4681 19.4296 13.1477 19.4787C12.8279 19.5272 12.5237 19.3748 12.3636 19.116C12.2363 19.3785 11.9671 19.5569 11.6603 19.5569C11.6472 19.5571 11.6342 19.5566 11.6211 19.556Z" fill="#F3F3F3"/>
<path d="M12.0001 17.2182C14.8816 17.2182 17.2175 14.8823 17.2175 12.0008C17.2175 9.11934 14.8816 6.78345 12.0001 6.78345C9.11862 6.78345 6.78271 9.11934 6.78271 12.0008C6.78271 14.8823 9.11862 17.2182 12.0001 17.2182Z" fill="#338AF3"/>
<path d="M13.142 10.2288C13.3983 10.0387 13.5652 9.73482 13.5652 9.39113V8.86941C13.5652 8.29308 13.0981 7.82593 12.5217 7.82593H11.4783C10.902 7.82593 10.4348 8.29308 10.4348 8.86941V9.39113C10.4348 9.73482 10.6017 10.0387 10.858 10.2288L9.91309 19.8259C9.91309 19.8259 10.4348 20.3477 12.0001 20.3477C13.5653 20.3477 14.087 19.8259 14.087 19.8259L13.142 10.2288Z" fill="#BDBCC1"/>
<path d="M12.0002 7.82593L12.9067 10.6158H15.8404L13.4671 12.3403L14.3735 15.1303L12.0002 13.406L9.62687 15.1303L10.5335 12.3403L8.16016 10.6158H11.0937L12.0002 7.82593Z" fill="#F0F0F0"/>
</g>
<defs>
<clipPath id="clip0_2321_23186">
<rect width="24" height="24" fill="white"/>
</clipPath>
</defs>
</svg>
