<svg width="24" height="24" viewBox="0 0 24 24" fill="none" xmlns="http://www.w3.org/2000/svg">
<g clip-path="url(#clip0_2321_23085)">
<path d="M11.9995 -0.000732422C11.1035 -0.000732422 10.2308 0.0983145 9.39086 0.284502L8.86914 11.9992L9.39086 23.714C10.2308 23.9002 11.1036 23.9993 11.9995 23.9993C18.6269 23.9993 23.9995 18.6266 23.9995 11.9992C23.9995 5.37185 18.6269 -0.000732422 11.9995 -0.000732422Z" fill="#496E2D"/>
<path d="M3.12992 3.91699C1.18536 6.04962 -0.000488281 8.88602 -0.000488281 11.9996C-0.000488281 15.1131 1.1854 17.9495 3.12997 20.0822L3.65168 11.9996L3.12992 3.91699Z" fill="#496E2D"/>
<path d="M17.5517 9.05156C18.1421 7.40596 17.4788 5.61623 16.0553 4.72485C16.3114 4.75818 16.5677 4.81846 16.8206 4.90917C18.7192 5.59035 19.7061 7.68154 19.0249 9.58007C18.3437 11.4787 16.2525 12.4656 14.3539 11.7844C14.101 11.6936 13.8648 11.5771 13.646 11.4401C15.3115 11.657 16.9613 10.6971 17.5517 9.05156Z" fill="#F0F0F0"/>
<path d="M14.2771 4.27417L13.7641 4.93708L12.9752 4.654L13.447 5.34672L12.9341 6.00953L13.7387 5.77487L14.2106 6.46749L14.2359 5.62975L15.0406 5.39504L14.2517 5.11206L14.2771 4.27417Z" fill="#F0F0F0"/>
<path d="M15.6624 6.4353L15.1493 7.09816L14.3604 6.81508L14.8323 7.5078L14.3193 8.17062L15.1239 7.93587L15.5959 8.62863L15.6213 7.79083L16.4259 7.55608L15.637 7.27305L15.6624 6.4353Z" fill="#F0F0F0"/>
<path d="M11.8342 5.0603L11.3212 5.72312L10.5323 5.44013L11.0042 6.1328L10.4912 6.79566L11.2958 6.56096L11.7677 7.25363L11.7931 6.41588L12.5977 6.18118L11.8089 5.8981L11.8342 5.0603Z" fill="#F0F0F0"/>
<path d="M11.7781 7.53442L11.2651 8.19728L10.4762 7.91425L10.9482 8.60697L10.4351 9.26978L11.2398 9.03513L11.7116 9.72775L11.737 8.89L12.5417 8.6553L11.7527 8.37222L11.7781 7.53442Z" fill="#F0F0F0"/>
<path d="M14.1321 8.37988L13.6191 9.0427L12.8302 8.75966L13.3022 9.45238L12.7891 10.1151L13.5938 9.88049L14.0657 10.5732L14.091 9.73537L14.8957 9.50071L14.1067 9.21768L14.1321 8.37988Z" fill="#F0F0F0"/>
<path d="M3.13037 3.91756V20.0827C4.76537 21.8759 6.93709 23.1708 9.39123 23.7148V0.2854C6.93704 0.829432 4.76542 2.12435 3.13037 3.91756Z" fill="#D80027"/>
<path d="M5.51936 6.31749L4.47119 5.53664V4.43241L5.51936 3.65161H7.00179L8.04996 4.43241V5.53664L7.00179 6.31749H5.51936Z" fill="#F0F0F0"/>
<path d="M6.2606 3.65161H5.51936L4.47119 4.43241V4.97227H6.2606V3.65161Z" fill="#FF9811"/>
<path d="M6.26074 6.31656H7.00193L8.0501 5.53571V4.97241H6.26074V6.31656Z" fill="#FF9811"/>
<path d="M5.51936 20.3485L4.47119 19.5676V18.4635L5.51936 17.6826H7.00179L8.04996 18.4635V19.5676L7.00179 20.3485H5.51936Z" fill="#F0F0F0"/>
<path d="M6.2606 17.6826H5.51936L4.47119 18.4635V19.0033H6.2606V17.6826Z" fill="#FF9811"/>
<path d="M6.26074 20.3492H7.00193L8.0501 19.5684V19.0051H6.26074V20.3492Z" fill="#FF9811"/>
<path d="M5.51936 13.3324L4.47119 12.5515V11.4473L5.51936 10.6665H7.00178L8.04995 11.4473V12.5515L7.00178 13.3324H5.51936Z" fill="#496E2D"/>
<path d="M8.0867 15.0514H7.63014V14.5949H6.82787L6.26059 14.0276L5.69335 14.5949H4.89109V15.0514H4.43457V15.9644H4.89109V16.4209H5.69331L6.26063 16.9883L6.82787 16.4209H7.63014V15.9644H8.0867V15.0514Z" fill="#496E2D"/>
<path d="M8.08719 8.03605H7.63062V7.57949H6.82836L6.26108 7.01221L5.69384 7.57949H4.89157V8.03605H4.43506V8.94908H4.89157V9.4056H5.69379L6.26112 9.97297L6.82836 9.4056H7.63062V8.94908H8.08719V8.03605Z" fill="#496E2D"/>
<path d="M6.78225 11.4792H5.73877V12.5227H6.78225V11.4792Z" fill="#D80027"/>
<path d="M6.26049 9.01487C6.54862 9.01487 6.7822 8.78129 6.7822 8.49315C6.7822 8.20502 6.54862 7.97144 6.26049 7.97144C5.97235 7.97144 5.73877 8.20502 5.73877 8.49315C5.73877 8.78129 5.97235 9.01487 6.26049 9.01487Z" fill="#D80027"/>
<path d="M6.26049 16.0307C6.54862 16.0307 6.7822 15.7972 6.7822 15.509C6.7822 15.2209 6.54862 14.9873 6.26049 14.9873C5.97235 14.9873 5.73877 15.2209 5.73877 15.509C5.73877 15.7972 5.97235 16.0307 6.26049 16.0307Z" fill="#D80027"/>
</g>
<defs>
<clipPath id="clip0_2321_23085">
<rect width="24" height="24" fill="white"/>
</clipPath>
</defs>
</svg>
