<svg width="24" height="24" viewBox="0 0 24 24" fill="none" xmlns="http://www.w3.org/2000/svg">
<g clip-path="url(#clip0_2321_23083)">
<path d="M24 12C24 18.6274 18.6274 24 12 24C5.37263 24 0 18.6274 0 12C0 12.0029 12 0.0013125 12 0C18.6274 0 24 5.37262 24 12Z" fill="#338AF3"/>
<path d="M5.73926 12.001H9.78654L6.26098 7.82715L5.73926 9.39235V12.001Z" fill="#0052B4"/>
<path d="M12.0001 9.78659L7.82617 5.73926H12.0001L12.0001 9.78659Z" fill="#0052B4"/>
<path d="M11.9683 11.9995H12.0004C12.0004 11.9887 12.0004 11.9781 12.0004 11.9673C11.9897 11.978 11.979 11.9887 11.9683 11.9995Z" fill="#F0F0F0"/>
<path d="M12.0005 6.2611C12.0005 4.14962 12.0005 2.76606 12.0005 0.000244141H11.9985C5.37199 0.00136914 0.000488281 5.37348 0.000488281 12.0002H6.26139V8.47473L9.78691 12.0002H11.9685C11.9792 11.9896 11.9898 11.9789 12.0006 11.9681C12.0006 11.1597 12.0006 10.4383 12.0006 9.78671L8.47493 6.2611H12.0005Z" fill="#F0F0F0"/>
<path d="M6.07124 1.56543C4.19441 2.63413 2.63413 4.19441 1.56543 6.07124V12.0002H4.69588V4.69598V4.69588H12.0002C12.0002 3.70856 12.0002 2.76796 12.0002 1.56543H6.07124Z" fill="#D80027"/>
<path d="M12.0004 10.5242L7.73686 6.26074H6.26123V6.26084L12.0003 11.9998H12.0004C12.0004 11.9998 12.0004 10.9823 12.0004 10.5242Z" fill="#D80027"/>
<path d="M13.0972 19.8252L13.3562 20.6224H14.1944L13.5163 21.115L13.7753 21.9121L13.0972 21.4195L12.4191 21.9121L12.6781 21.115L12 20.6224H12.8381L13.0972 19.8252Z" fill="#FFDA44"/>
<path d="M19.7725 14.6091L20.0315 15.4063H20.8696L20.1916 15.899L20.4507 16.6961L19.7725 16.2035L19.0944 16.6961L19.3535 15.899L18.6753 15.4063H19.5135L19.7725 14.6091Z" fill="#FFDA44"/>
<path d="M21.4448 6.78247L21.7038 7.57963H22.542L21.864 8.07228L22.123 8.86939L21.4448 8.37678L20.7668 8.86939L21.0258 8.07228L20.3477 7.57963H21.1858L21.4448 6.78247Z" fill="#FFDA44"/>
<path d="M21.8594 12.5212L22.1184 13.3184H22.9566L22.2785 13.8111L22.5376 14.6082L21.8594 14.1156L21.1814 14.6082L21.4404 13.8111L20.7622 13.3184H21.6004L21.8594 12.5212Z" fill="#FFDA44"/>
<path d="M14.299 17.9513L15.0459 18.3319L15.6386 17.7393L15.5075 18.567L16.2543 18.9475L15.4264 19.0787L15.2953 19.9066L14.9148 19.1597L14.0869 19.2909L14.6796 18.6983L14.299 17.9513Z" fill="#FFDA44"/>
<path d="M14.299 14.8212L15.0459 15.2018L15.6386 14.6091L15.5075 15.4369L16.2543 15.8174L15.4264 15.9486L15.2953 16.7764L14.9148 16.0296L14.0869 16.1608L14.6796 15.5681L14.299 14.8212Z" fill="#FFDA44"/>
<path d="M16.9079 16.8271L17.6548 17.2076L18.2475 16.615L18.1164 17.4428L18.8632 17.8233L18.0353 17.9544L17.9041 18.7823L17.5237 18.0354L16.6958 18.1667L17.2884 17.574L16.9079 16.8271Z" fill="#FFDA44"/>
<path d="M16.9079 10.1247L17.6548 10.5052L18.2475 9.9126L18.1164 10.7404L18.8632 11.1209L18.0353 11.252L17.9041 12.0799L17.5237 11.3331L16.6958 11.4642L17.2884 10.8716L16.9079 10.1247Z" fill="#FFDA44"/>
<path d="M19.4362 10.0444L20.1831 10.4249L20.7758 9.83228L20.6447 10.6601L21.3915 11.0406L20.5636 11.1717L20.4325 11.9996L20.052 11.2528L19.2241 11.3839L19.8168 10.7913L19.4362 10.0444Z" fill="#FFDA44"/>
</g>
<defs>
<clipPath id="clip0_2321_23083">
<rect width="24" height="24" fill="white"/>
</clipPath>
</defs>
</svg>
