<svg width="24" height="24" viewBox="0 0 24 24" fill="none" xmlns="http://www.w3.org/2000/svg">
<g clip-path="url(#clip0_2321_23296)">
<path d="M12 24C18.6274 24 24 18.6274 24 12C24 5.37258 18.6274 0 12 0C5.37258 0 0 5.37258 0 12C0 18.6274 5.37258 24 12 24Z" fill="#F0F0F0"/>
<path d="M3.51422 20.4853C-1.17206 15.7989 -1.17206 8.20098 3.51422 3.51465C3.51389 3.51516 10.4343 12 10.4343 12L3.51422 20.4853Z" fill="black"/>
<path d="M10.4351 12.0001L1.59187 6.02417C1.3177 6.50075 1.07591 6.99819 0.868164 7.51306L5.34515 12.0002L0.868305 16.4875C1.07587 17.002 1.31741 17.4991 1.5914 17.9754L10.4351 12.0001Z" fill="#FFDA44"/>
<path d="M23.8987 10.4348H10.4347L3.51482 3.51489C2.76914 4.26058 2.12128 5.10391 1.59178 6.02411L7.55611 12L1.59131 17.9752C2.12081 18.8956 2.76895 19.7392 3.51482 20.4851L10.4347 13.5652H23.8987C23.9654 13.0529 24.0002 12.5305 24.0002 12C24.0002 11.4695 23.9654 10.9472 23.8987 10.4348Z" fill="#6DA544"/>
<path d="M4.69385 21.5182C6.71739 23.0736 9.25038 23.9989 11.9999 23.9989C17.5442 23.9989 22.2095 20.2386 23.5865 15.1294H11.0827L4.69385 21.5182Z" fill="#0052B4"/>
<path d="M23.5865 8.86881C22.2095 3.75963 17.5442 -0.000732422 11.9999 -0.000732422C9.25038 -0.000732422 6.71739 0.924627 4.69385 2.48003L11.0826 8.86881H23.5865Z" fill="#D80027"/>
</g>
<defs>
<clipPath id="clip0_2321_23296">
<rect width="24" height="24" fill="white"/>
</clipPath>
</defs>
</svg>
